<?xml version="1.0" encoding="UTF-8"?>
<svg width="400" height="300" version="1.1" viewBox="0 0 400 300" xmlns="http://www.w3.org/2000/svg">
 <rect width="400" height="300" fill="#f0f9ff"/>
 <g transform="matrix(1.3333 0 0 -1.3333 0 300)">
  <path d="m150 112.5c0-20.711-16.789-37.5-37.5-37.5s-37.5 16.789-37.5 37.5 16.789 37.5 37.5 37.5 37.5-16.789 37.5-37.5zm-60 0c0-12.426 10.074-22.5 22.5-22.5s22.5 10.074 22.5 22.5-10.074 22.5-22.5 22.5-22.5-10.074-22.5-22.5z" fill="#0ea5e9"/>
  <path d="m225 150h-150c-4.1426 0-7.5-3.3574-7.5-7.5v-100c0-4.1426 3.3574-7.5 7.5-7.5h150c4.1426 0 7.5 3.3574 7.5 7.5v100c0 4.1426-3.3574 7.5-7.5 7.5zm-142.5-15h135v-85h-135z" fill="#0ea5e9"/>
 </g>
</svg>